<?xml version="1.0" encoding="UTF-8"?>
<svg version="1.1" xmlns="http://www.w3.org/2000/svg" width="947" height="232">
<path d="M0 0 C312.51 0 625.02 0 947 0 C947 76.56 947 153.12 947 232 C634.49 232 321.98 232 0 232 C0 155.44 0 78.88 0 0 Z " fill="#FEFEFE" transform="translate(0,0)"/>
<path d="M0 0 C13.80179452 11.53159281 23.6410896 27.62974288 26.0625 45.5625 C28.02157589 68.74246134 24.29879062 90.03762402 9.5625 108.5625 C8.41095845 109.90891782 7.25048908 111.24812911 6.0625 112.5625 C4.07621885 110.09722627 2.10980512 107.6252091 0.203125 105.09765625 C-3.98539098 99.61970044 -8.15937624 95.34286821 -13.9375 91.5625 C-12.92718295 88.69993503 -11.89370996 86.50411328 -10.0625 84.0625 C-3.29582043 73.98879658 -2.65928614 61.28037468 -3.9375 49.5625 C-6.36566145 37.33984461 -13.08101694 27.60136754 -23.1875 20.4375 C-32.80321886 14.3112292 -42.6232979 12.91503591 -53.89453125 15.1484375 C-64.77431505 18.54156035 -72.61217375 26.05547147 -78.5 35.59375 C-82.05634384 42.93837315 -83.49434379 49.53306868 -83.4375 57.6875 C-83.43468018 58.59749756 -83.43186035 59.50749512 -83.42895508 60.44506836 C-83.19571487 70.30965522 -81.07190446 79.62914995 -74.9375 87.5625 C-74.9375 88.2225 -74.9375 88.8825 -74.9375 89.5625 C-74.2775 89.5625 -73.6175 89.5625 -72.9375 89.5625 C-72.9375 90.2225 -72.9375 90.8825 -72.9375 91.5625 C-74.4156542 92.80272193 -75.94725976 93.97953589 -77.5 95.125 C-83.55193525 99.82919931 -87.71625667 105.230635 -91.9375 111.5625 C-99.5212501 108.54585274 -103.76920339 99.33305553 -107.1875 92.375 C-114.76240398 74.76231341 -117.25983578 54.99198081 -110.9375 36.5625 C-110.60878906 35.44875 -110.28007813 34.335 -109.94140625 33.1875 C-107.04101156 24.03469737 -102.72243017 17.07876231 -96.9375 9.5625 C-96.44507812 8.88574219 -95.95265625 8.20898438 -95.4453125 7.51171875 C-71.75793021 -22.97352178 -28.48311466 -21.08044631 0 0 Z " fill="#EF4125" transform="translate(138.9375,53.4375)"/>
<path d="M0 0 C51.64143426 0 51.64143426 0 66.203125 12.9609375 C75.78893757 22.80285956 80.88711422 35.60787701 81.3125 49.1875 C81.01493337 64.188359 76.64257863 76.98067052 66.23828125 87.93359375 C47.87671925 104.88519287 23.64337085 101 0 101 C0 67.67 0 34.34 0 0 Z " fill="#0576BC" transform="translate(837,66)"/>
<path d="M0 0 C51 0 51 0 60.375 6.25 C67.97406426 14.21092446 70.5751432 22.37579152 70.3671875 33.328125 C69.41501015 42.8498985 65.55507814 49.40650169 58.28125 55.4765625 C55.92819578 57.04795145 53.65988249 58.05405588 51 59 C54.78166241 66.22274031 58.64276572 73.39094248 62.6484375 80.4921875 C63.28249512 81.61633057 63.91655273 82.74047363 64.56982422 83.89868164 C65.85155258 86.16561912 67.13700821 88.43045344 68.42626953 90.69311523 C69.31354736 92.26234741 69.31354736 92.26234741 70.21875 93.86328125 C70.75435547 94.80469971 71.28996094 95.74611816 71.84179688 96.71606445 C73 99 73 99 73 101 C65.41 101 57.82 101 50 101 C48.57771211 98.25594683 47.1554991 95.51185483 45.73364258 92.76757812 C44.53415475 90.46023114 43.32954152 88.15554155 42.11987305 85.85351562 C36.98100445 76.06519449 36.98100445 76.06519449 34.9296875 71.48046875 C34.39601563 70.33191406 33.86234375 69.18335938 33.3125 68 C32.89613281 67.030625 32.47976563 66.06125 32.05078125 65.0625 C29.30134098 61.8604764 29.30134098 61.8604764 20 62 C20 74.87 20 87.74 20 101 C13.4 101 6.8 101 0 101 C0 67.67 0 34.34 0 0 Z " fill="#EF4124" transform="translate(539,66)"/>
<path d="M0 0 C48 0 48 0 58 5 C66.33452218 13.33452218 69.30190448 20.36053708 69.31469727 32.07446289 C69.12684707 41.30357644 66.30386702 48.64808814 59.9375 55.34375 C54.30513416 60.15851435 48.12411973 62.13203812 40.80078125 62.09765625 C39.71192627 62.09515869 38.62307129 62.09266113 37.5012207 62.09008789 C36.11894287 62.08098389 34.73666504 62.07187988 33.3125 62.0625 C26.7228125 62.0315625 26.7228125 62.0315625 20 62 C20 74.87 20 87.74 20 101 C13.4 101 6.8 101 0 101 C0 67.67 0 34.34 0 0 Z " fill="#EF4124" transform="translate(382,66)"/>
<path d="M0 0 C6.93 0 13.86 0 21 0 C21.0093457 2.11414307 21.01869141 4.22828613 21.02832031 6.40649414 C21.06215381 13.40752731 21.11773797 20.40826769 21.18390274 27.4090662 C21.22333843 31.65187646 21.2555459 35.8944804 21.27099609 40.13745117 C21.2861887 44.23555323 21.32067964 48.33308791 21.36830902 52.43093681 C21.38309614 53.99090061 21.39103948 55.55094543 21.39188385 57.11097908 C21.39426349 59.30384259 21.42141882 61.49515067 21.45410156 63.68774414 C21.46298401 64.93350723 21.47186646 66.17927032 21.48101807 67.46278381 C22.13778323 71.93908678 23.44228829 74.27559859 26 78 C30.73061488 80.76696342 34.56350653 81.58248144 40 81 C45.18948982 79.32880836 47.97204246 77.54193631 51 73 C52.45550803 70.08898394 52.1651099 67.50682802 52.20532227 64.25537109 C52.21522186 63.56257553 52.22512146 62.86977997 52.23532104 62.1559906 C52.26695497 59.86184122 52.29170086 57.56767111 52.31640625 55.2734375 C52.33697415 53.68445288 52.35797058 52.09547376 52.37937927 50.50650024 C52.43461691 46.32096805 52.48401869 42.13538634 52.53222656 37.94976807 C52.58242926 33.6800088 52.63812174 29.41032158 52.69335938 25.140625 C52.80096165 16.76047588 52.9018948 8.38026569 53 0 C59.93 0 66.86 0 74 0 C74.1135353 9.29347533 74.20502089 18.58648053 74.25906086 27.88049603 C74.28501401 32.19736956 74.32014583 36.51373884 74.37719727 40.83032227 C74.43203343 45.0060341 74.46152754 49.18126487 74.47438622 53.35730934 C74.48353459 54.9403521 74.50139593 56.52337233 74.52865028 58.10620689 C74.74574517 71.2523943 72.9158458 83.20275377 63.38671875 93.05859375 C52.46774541 101.94031184 40.51007914 103.05209045 27 102 C18.11579606 100.31859056 11.02996231 94.21327534 5.58984375 87.17578125 C-0.48768667 77.26224303 -0.40670907 67.31337755 -0.29296875 56.15234375 C-0.28736428 54.52853286 -0.28309821 52.90471685 -0.28010559 51.28089905 C-0.26872373 47.03445097 -0.23931504 42.78831721 -0.20599365 38.54199219 C-0.17514809 34.1979599 -0.16156948 29.85387617 -0.14648438 25.50976562 C-0.11443791 17.00635104 -0.06172557 8.50325099 0 0 Z " fill="#EF4528" transform="translate(286,66)"/>
<path d="M0 0 C6.6 0 13.2 0 20 0 C20.00410889 2.07861328 20.00821777 4.15722656 20.01245117 6.29882812 C20.02969507 13.1881182 20.0742738 20.07703961 20.13209057 26.9661026 C20.16629379 31.14055989 20.19146008 35.3146538 20.19555664 39.48925781 C20.19985405 43.52261065 20.22843464 47.55514473 20.27343178 51.58824158 C20.28636102 53.12226074 20.29073072 54.65637812 20.28615379 56.19044495 C20.12538326 68.06745079 20.12538326 68.06745079 26 78 C29.81864248 80.7154791 33.19889818 81.54536591 37.91015625 81.35546875 C42.65089343 80.54910037 46.65799964 78.42858102 49.9375 74.9375 C52.10414685 70.98655575 52.14958874 67.66843896 52.20532227 63.23364258 C52.21522186 62.55045456 52.22512146 61.86726654 52.23532104 61.16337585 C52.26688679 58.90712947 52.2916739 56.65086203 52.31640625 54.39453125 C52.33698004 52.82939611 52.35797662 51.26426648 52.37937927 49.69914246 C52.43455609 45.58102884 52.48398471 41.46286544 52.53222656 37.34466553 C52.58247365 33.14184136 52.63814297 28.93908942 52.69335938 24.73632812 C52.80088728 16.49094485 52.90184304 8.24550016 53 0 C59.6 0 66.2 0 73 0 C73.09065614 9.60606362 73.16391984 19.21183941 73.20724869 28.8182354 C73.22805272 33.27970247 73.2562376 37.74085966 73.30175781 42.20214844 C73.34547383 46.51398861 73.36919103 50.82553223 73.37950897 55.13757706 C73.38685443 56.77610054 73.4011976 58.41460927 73.42292023 60.05300522 C73.58073617 72.45838426 72.18000627 82.10551815 64.0546875 91.95703125 C55.57945377 100.38392715 45.42383131 102.4430892 33.92456055 102.43603516 C24.68783109 102.21555217 16.32090821 99.2289217 9.52734375 92.80078125 C3.10911949 85.23351428 -0.26049908 77.36822739 -0.22705078 67.43408203 C-0.22734283 66.70168808 -0.22763489 65.96929413 -0.22793579 65.21470642 C-0.22655094 62.81228471 -0.21102997 60.41017952 -0.1953125 58.0078125 C-0.19157936 56.33487111 -0.18873381 54.66192752 -0.18673706 52.98898315 C-0.1791243 48.59954728 -0.15949619 44.2102451 -0.1373291 39.82086182 C-0.11681976 35.33632211 -0.10772448 30.85176066 -0.09765625 26.3671875 C-0.07624794 17.578057 -0.04108514 8.78906057 0 0 Z " fill="#0576BC" transform="translate(741,66)"/>
<path d="M0 0 C16.83 0 33.66 0 51 0 C51 6.93 51 13.86 51 21 C41.1 21 31.2 21 21 21 C21 27.6 21 34.2 21 41 C29.91 41 38.82 41 48 41 C48 47.6 48 54.2 48 61 C39.09 61 30.18 61 21 61 C21 67.93 21 74.86 21 82 C31.56 82 42.12 82 53 82 C53 88.6 53 95.2 53 102 C35.51 102 18.02 102 0 102 C0 68.34 0 34.68 0 0 Z " fill="#EF4427" transform="translate(467,65)"/>
<path d="M0 0 C0.77585449 0.00322266 1.55170898 0.00644531 2.35107422 0.00976562 C9.49299676 0.18033656 15.65594052 1.8031019 22.3125 4.4375 C21.78844437 11.12757182 21.20786075 17.7862487 20.3125 24.4375 C19.68085938 24.2209375 19.04921875 24.004375 18.3984375 23.78125 C10.85562134 21.43362998 3.18751106 20.20277604 -4.6875 21.4375 C-7.61155495 23.08007537 -7.61155495 23.08007537 -9.6875 25.4375 C-10.34020512 30.00643584 -10.55178152 31.98802786 -8.1875 35.953125 C-4.87086079 39.24903522 -1.42401284 40.55078193 2.875 42.25 C13.03071028 46.54570657 22.9436013 51.31852506 28.34765625 61.46875 C31.18124428 70.18748239 30.40958269 80.24430162 26.4296875 88.46484375 C22.32914688 95.70530882 16.14102238 99.41991629 8.5546875 102.58984375 C4.41677784 103.67168278 0.57406502 103.82064749 -3.6875 103.8125 C-4.52039551 103.81161377 -5.35329102 103.81072754 -6.21142578 103.80981445 C-15.303536 103.63808428 -25.29093855 102.10954439 -32.6875 96.4375 C-33.24609375 94.34375 -33.24609375 94.34375 -33.125 91.9375 C-33.08246094 91.06351562 -33.03992188 90.18953125 -32.99609375 89.2890625 C-32.49053583 84.61745133 -31.66569793 80.03153669 -30.6875 75.4375 C-27.40699124 76.47766132 -24.27977882 77.61632508 -21.125 79 C-15.77158509 81.23870078 -10.98076034 81.63992805 -5.1875 81.75 C-3.8984375 81.78738281 -2.609375 81.82476562 -1.28125 81.86328125 C2.8855009 81.36961185 4.49710997 80.51318081 7.3125 77.4375 C8.09220379 75.24039505 8.09220379 75.24039505 7.9375 72.9375 C7.95039063 72.1846875 7.96328125 71.431875 7.9765625 70.65625 C6.97671556 67.31558492 5.20200333 66.31858606 2.3125 64.4375 C-0.08275502 63.416437 -2.42912359 62.49539764 -4.875 61.625 C-15.5107482 57.58681435 -25.67187587 51.56285811 -30.5625 40.8125 C-33.11940081 32.78538108 -32.72867358 24.7684189 -29.25 17.125 C-24.90171825 9.39017411 -19.24376231 3.96023186 -10.84667969 1.01538086 C-7.22515349 0.04611893 -3.73220058 -0.04877631 0 0 Z " fill="#EF4226" transform="translate(239.6875,64.5625)"/>
<path d="M0 0 C-0.66 6.6 -1.32 13.2 -2 20 C-3.52625 19.505 -5.0525 19.01 -6.625 18.5 C-13.29267346 16.69489151 -20.14255516 15.92482038 -27 17 C-30.81661967 19.31447352 -30.81661967 19.31447352 -32.62890625 23.21875 C-32.60699219 23.9715625 -32.58507812 24.724375 -32.5625 25.5 C-32.56378906 26.2528125 -32.56507813 27.005625 -32.56640625 27.78125 C-31.75643835 30.95408976 -30.59145925 31.97769301 -28 34 C-25.17046413 35.43674384 -22.25079245 36.61780637 -19.3125 37.8125 C-9.06519651 42.18159243 0.98643348 47.90390534 6.13671875 58.29296875 C8.64950958 66.17244406 7.81917331 75.32120542 4.31640625 82.75390625 C-0.80780967 91.49700464 -7.48387866 95.82795955 -17 99 C-29.67196116 99.76306972 -44.37787354 100.1455651 -55 92 C-55.55859375 89.90625 -55.55859375 89.90625 -55.4375 87.5 C-55.39496094 86.62601562 -55.35242188 85.75203125 -55.30859375 84.8515625 C-54.80303583 80.17995133 -53.97819793 75.59403669 -53 71 C-50.53722529 71.96939004 -48.10264098 72.9521707 -45.703125 74.0703125 C-39.81188423 76.60317079 -34.46981298 77.42242507 -28.125 77.5 C-27.39958008 77.51820801 -26.67416016 77.53641602 -25.92675781 77.55517578 C-22.34600438 77.51450427 -20.13176708 77.07767323 -17.03125 75.25 C-14.78058031 72.7569505 -14.31840402 71.80520512 -14.375 68.5 C-14.36210938 67.7471875 -14.34921875 66.994375 -14.3359375 66.21875 C-15.34319548 62.85332335 -17.07439319 61.89281386 -20 60 C-22.70012209 58.75668137 -25.46555525 57.72508815 -28.25 56.6875 C-38.70065978 52.58315588 -46.84835024 47.11423478 -52.609375 37.2421875 C-55.67289487 30.0997114 -55.09819101 20.38723909 -52.234375 13.16015625 C-40.40789754 -7.53617931 -19.93074623 -6.1325373 0 0 Z " fill="#0676BC" transform="translate(717,69)"/>
<path d="M0 0 C6.49091212 3.40000159 10.63994932 9.07409791 13.3671875 15.7890625 C15.50733317 23.94085332 14.95373005 32.61330422 11.390625 40.25390625 C9.1353936 43.96177199 6.43847974 46.73528267 3.0625 49.4375 C2.52753906 49.87191406 1.99257812 50.30632812 1.44140625 50.75390625 C-4.65288441 54.94829814 -11.64199607 53.94020399 -18.625 52.875 C-26.61384503 49.40814272 -31.53698714 43.33311141 -34.9375 35.4375 C-37.55273444 26.84220718 -35.9257343 17.26072581 -31.87109375 9.359375 C-24.7651589 -1.4285129 -11.98237759 -4.77662071 0 0 Z " fill="#0476BC" transform="translate(105.9375,84.5625)"/>
<path d="M0 0 C22.79611959 0 22.79611959 0 31.5 8.22265625 C39.10387561 17.23245678 39.82238763 26.62556832 39 38 C37.29058979 45.40418821 33.46049276 51.72143504 27.3046875 56.24609375 C18.31494801 61.74878183 10.67897684 61 0 61 C0 40.87 0 20.74 0 0 Z " fill="#FBFDFE" transform="translate(857,86)"/>
<path d="M0 0 C6.8303611 4.90893466 11.34942477 11.46605671 14.1875 19.3125 C7.36630719 23.31962657 0.88220323 26.40968835 -6.8125 28.3125 C-7.080625 27.78140625 -7.34875 27.2503125 -7.625 26.703125 C-10.6898848 21.17826688 -13.67258954 18.11702082 -19.8125 16.3125 C-25.14577316 15.44196573 -29.26668523 16.38297493 -33.8125 19.3125 C-36.97170196 22.11270174 -39.03943769 24.51653477 -40.8125 28.3125 C-48.39252339 26.27216288 -54.7444282 24.39274616 -60.8125 19.3125 C-58.8163071 10.66233077 -52.32687347 3.91521215 -45.3125 -1.1796875 C-30.93864366 -9.84891961 -14.07909475 -8.53782942 0 0 Z " fill="#0576BC" transform="translate(118.8125,156.6875)"/>
<path d="M0 0 C3.196875 -0.061875 6.39375 -0.12375 9.6875 -0.1875 C11.18543091 -0.22846802 11.18543091 -0.22846802 12.71362305 -0.27026367 C18.80358618 -0.32732831 22.25364787 0.44305147 26.8125 4.6875 C28.55588571 8.08251427 28.54357078 11.30518783 28 15 C26.32465048 18.85330389 24.85881547 20.45904065 21 22 C18.61816406 22.22705078 18.61816406 22.22705078 16.015625 22.1953125 C15.17290039 22.19031738 14.33017578 22.18532227 13.46191406 22.18017578 C11.8720166 22.15286377 11.8720166 22.15286377 10.25 22.125 C6.8675 22.08375 3.485 22.0425 0 22 C0 14.74 0 7.48 0 0 Z " fill="#FEF9F8" transform="translate(559,86)"/>
<path d="M0 0 C3.3825 -0.04125 6.765 -0.0825 10.25 -0.125 C11.30993164 -0.14320801 12.36986328 -0.16141602 13.46191406 -0.18017578 C14.30463867 -0.1851709 15.14736328 -0.19016602 16.015625 -0.1953125 C16.87446289 -0.20578613 17.73330078 -0.21625977 18.61816406 -0.22705078 C21.22483806 0.0214329 22.78761778 0.62101651 25 2 C27.93910735 5.56891607 28.47509714 8.58856882 28.2890625 13.0703125 C27.85655103 15.95761881 26.84410875 17.76072509 25 20 C21.9255594 21.91630668 19.6082339 22.2391248 16.015625 22.1953125 C15.17290039 22.19031738 14.33017578 22.18532227 13.46191406 22.18017578 C11.8720166 22.15286377 11.8720166 22.15286377 10.25 22.125 C6.8675 22.08375 3.485 22.0425 0 22 C0 14.74 0 7.48 0 0 Z " fill="#FEFBFB" transform="translate(402,86)"/>
<path d="M0 0 C2.875 0.6875 2.875 0.6875 3.875 1.6875 C4.1732732 4.52109542 4.23102594 6.12535378 2.6875 8.5625 C0.875 9.6875 0.875 9.6875 -1.6875 9.5 C-4.125 8.6875 -4.125 8.6875 -6.125 6.6875 C-6.4375 4.1875 -6.4375 4.1875 -6.125 1.6875 C-3.125 -0.3125 -3.125 -0.3125 0 0 Z " fill="#FDF0ED" transform="translate(137.125,67.3125)"/>
<path d="M0 0 C3.0625 0.1875 3.0625 0.1875 5.0625 2.1875 C5.3125 4.6875 5.3125 4.6875 5.0625 7.1875 C3.0625 9.1875 3.0625 9.1875 0.0625 9.5 C-0.9275 9.396875 -1.9175 9.29375 -2.9375 9.1875 C-4.9375 6.1875 -4.9375 6.1875 -4.625 3.5625 C-3.63731654 0.1505026 -3.65603948 0.23336422 0 0 Z " fill="#FEF3F1" transform="translate(94.9375,47.8125)"/>
<path d="M0 0 C2.5625 0.3125 2.5625 0.3125 4.4375 1.5 C5.5625 3.3125 5.5625 3.3125 5.3125 5.9375 C4.5625 8.3125 4.5625 8.3125 3.5625 9.3125 C0.625 9.5 0.625 9.5 -2.4375 9.3125 C-4.4375 7.3125 -4.4375 7.3125 -4.6875 4.8125 C-4.34234788 1.3609788 -3.44095645 0.44114826 0 0 Z " fill="#FEF6F4" transform="translate(150.4375,107.6875)"/>
<path d="M0 0 C2.5625 0.3125 2.5625 0.3125 4.4375 1.5 C5.5625 3.3125 5.5625 3.3125 5.3125 5.9375 C4.5625 8.3125 4.5625 8.3125 3.5625 9.3125 C0.625 9.5 0.625 9.5 -2.4375 9.3125 C-4.4375 7.3125 -4.4375 7.3125 -4.6875 4.8125 C-4.34234788 1.3609788 -3.44095645 0.44114826 0 0 Z " fill="#FEF5F4" transform="translate(39.4375,107.6875)"/>
<path d="M0 0 C2.5 0.25 2.5 0.25 4.5 2.25 C4.6875 5.3125 4.6875 5.3125 4.5 8.25 C3.5 9.25 3.5 9.25 0 9.375 C-3.5 9.25 -3.5 9.25 -4.5 8.25 C-4.6875 5.3125 -4.6875 5.3125 -4.5 2.25 C-2.5 0.25 -2.5 0.25 0 0 Z " fill="#FEF7F5" transform="translate(54.5,66.75)"/>
</svg>
