<?xml version="1.0" encoding="UTF-8"?>
<svg version="1.1" xmlns="http://www.w3.org/2000/svg" width="5002" height="1670">
<path d="M0 0 C0.91752045 0.00093658 1.83504089 0.00187317 2.78036499 0.00283813 C97.0205246 0.20986971 189.84023414 27.11512045 330.75 122.1875 C331.72356445 123.00444336 331.72356445 123.00444336 332.71679688 123.83789062 C339.04376863 129.14997757 345.22871398 134.48093186 350.984375 140.41796875 C352.71369618 142.15111586 354.50697668 143.73095925 356.375 145.3125 C364.80631787 152.57512034 372.7994999 160.65199106 379.98828125 169.14453125 C381.84071375 171.29269577 383.75836554 173.37355697 385.68847656 175.4519043 C391.30179049 181.50119451 396.5921324 187.74229684 401.75 194.1875 C402.67240375 195.31833957 403.59562196 196.44851515 404.51953125 197.578125 C426.71558838 224.83967234 445.87201192 254.5663648 462.36083984 285.58544922 C463.65810091 288.01536283 464.97574328 290.43280944 466.30078125 292.84765625 C498.52912477 352.06396223 517.82114415 419.46846006 526.625 486.0625 C526.72259613 486.79218994 526.82019226 487.52187988 526.92074585 488.27368164 C527.61809562 493.56984156 528.21538067 498.87252209 528.75 504.1875 C528.88823685 505.56163559 528.88823685 505.56163559 529.02926636 506.96353149 C530.79941994 525.26434495 531.11402434 543.50173197 531.06805801 561.86872101 C531.06241333 564.1601824 531.05959567 566.45163637 531.05697632 568.74310303 C531.02049907 590.69453776 530.59740865 612.3888506 527.75 634.1875 C527.57561216 635.60127086 527.40230721 637.01517564 527.22998047 638.42919922 C520.31586049 694.64002048 506.02158303 750.46091391 482.75 802.1875 C482.29447754 803.21230469 481.83895508 804.23710938 481.36962891 805.29296875 C460.73342711 851.57612408 434.60241203 895.39711599 402.18994141 934.44335938 C400.16245602 936.89916737 398.17994304 939.39072868 396.1875 941.875 C391.85980628 947.16706009 387.23317066 952.15386734 382.5703125 957.1484375 C379.20969163 960.75248363 375.95867595 964.44781077 372.75 968.1875 C369.75 967.1875 369.75 967.1875 368.71362305 965.67895508 C368.39949463 965.02822021 368.08536621 964.37748535 367.76171875 963.70703125 C367.39264404 962.96638428 367.02356934 962.2257373 366.64331055 961.46264648 C366.24539307 960.64997314 365.84747559 959.8372998 365.4375 959 C353.5017003 935.53812699 337.98431003 914.16310358 321.20751953 893.95361328 C319.86170039 892.32285019 318.53405815 890.67965583 317.21484375 889.02734375 C313.25657014 884.09138335 309.18883593 879.48783289 304.6484375 875.08203125 C302.7499406 873.18744072 300.9964372 871.22237592 299.25 869.1875 C293.91403428 863.0045556 288.11949949 857.40171121 281.92578125 852.0859375 C279.44347802 849.92004995 277.03944855 847.67873043 274.625 845.4375 C258.45175441 830.72649306 240.34019871 817.65095043 221.75 806.1875 C222.26507442 802.00747294 224.79522429 799.56510494 227.5 796.5625 C281.89753711 734.0624367 309.06468876 647.89761511 308.9375 565.875 C308.93656342 565.08726196 308.93562683 564.29952393 308.93466187 563.48791504 C308.79753689 509.91055413 297.61725168 456.74524064 274.75 408.1875 C274.40759277 407.45966309 274.06518555 406.73182617 273.71240234 405.98193359 C271.49762417 401.32660423 269.16082985 396.74402187 266.75 392.1875 C266.33637207 391.4027832 265.92274414 390.61806641 265.49658203 389.80957031 C259.50426163 378.50801462 253.15387755 367.62266505 245.75 357.1875 C245.07686768 356.23834717 245.07686768 356.23834717 244.39013672 355.27001953 C238.47898079 346.9861194 232.31062966 338.97074284 225.75 331.1875 C224.87342522 330.1239226 223.99713649 329.06010941 223.12109375 327.99609375 C212.72226996 315.48866965 201.39651443 303.36495292 188.52026367 293.37451172 C185.69343593 291.14284495 182.96131284 288.82312989 180.22265625 286.484375 C174.10461126 281.33992584 167.66801366 276.78597377 161 272.375 C160.42140228 271.99142334 159.84280457 271.60784668 159.24667358 271.21264648 C116.47944542 242.95332029 64.80016079 223.2572262 12.9921875 222.984375 C12.09442596 222.97736069 11.19666443 222.97034637 10.271698 222.96311951 C7.38941367 222.94571324 4.50733497 222.9392668 1.625 222.9375 C0.14586121 222.93648788 0.14586121 222.93648788 -1.36315918 222.93545532 C-16.22078289 222.95161082 -30.60862645 223.45540317 -45.25 226.1875 C-46.21631348 226.35910645 -47.18262695 226.53071289 -48.17822266 226.70751953 C-71.17765409 230.85653836 -92.86155518 237.83162376 -114.25 247.1875 C-114.99411133 247.50799316 -115.73822266 247.82848633 -116.50488281 248.15869141 C-144.03907922 260.10618232 -169.83792573 277.5240691 -191.8125 297.93359375 C-193.87844186 299.84392781 -195.97950579 301.6807997 -198.125 303.5 C-206.84205679 311.10728775 -214.90933681 319.39863598 -222.08984375 328.46875 C-224.32981618 331.28795581 -226.65893886 334.01437799 -229 336.75 C-246.16091549 357.39091538 -259.20225033 380.28884469 -271.25 404.1875 C-271.6207666 404.90905273 -271.9915332 405.63060547 -272.37353516 406.37402344 C-296.91911248 454.29131021 -307.5236187 510.58573191 -307.4375 564.0625 C-307.43656342 564.82406403 -307.43562683 565.58562805 -307.43466187 566.37026978 C-307.21871319 648.07227216 -280.46231289 731.26020173 -227.66015625 794.296875 C-226.84417969 795.27140625 -226.02820313 796.2459375 -225.1875 797.25 C-224.45402344 798.10722656 -223.72054688 798.96445313 -222.96484375 799.84765625 C-221.33711968 802.06862827 -220.65373564 803.49799951 -220.25 806.1875 C-221.17039062 806.79335937 -222.09078125 807.39921875 -223.0390625 808.0234375 C-237.72566023 817.7264183 -251.72870345 827.90666077 -265.25 839.1875 C-265.84280762 839.67976074 -266.43561523 840.17202148 -267.04638672 840.67919922 C-281.71726221 852.90010058 -295.52563073 865.95057569 -308.25 880.1875 C-309.02472656 881.02410156 -309.79945313 881.86070312 -310.59765625 882.72265625 C-316.89842617 889.55682468 -322.62421805 896.79788249 -328.25 904.1875 C-328.79849609 904.90615234 -329.34699219 905.62480469 -329.91210938 906.36523438 C-343.13821667 923.77587279 -354.35260696 942.07628377 -365.07080078 961.11230469 C-366.42468847 963.49492278 -367.82102156 965.84917164 -369.25 968.1875 C-373.35340932 966.60033224 -375.8825238 963.63625392 -378.75 960.4375 C-379.27263428 959.86185303 -379.79526855 959.28620605 -380.33374023 958.69311523 C-390.09592012 947.8818042 -399.38619159 936.74504417 -408.25 925.1875 C-409.08289551 924.10952148 -409.08289551 924.10952148 -409.93261719 923.00976562 C-458.23106607 860.36235417 -493.05161826 787.88696846 -512.25 711.1875 C-512.55244629 709.98303223 -512.85489258 708.77856445 -513.16650391 707.53759766 C-523.15066289 667.12704698 -529.30921559 624.987385 -529.453125 583.33203125 C-529.46019155 581.94950325 -529.46732422 580.56697559 -529.47451782 579.18444824 C-529.4940396 574.78962668 -529.49921019 570.39486086 -529.5 566 C-529.50029457 565.24999599 -529.50058914 564.49999199 -529.50089264 563.72726059 C-529.5023496 540.75822845 -529.21969186 517.99525391 -526.25 495.1875 C-526.15289734 494.42203857 -526.05579468 493.65657715 -525.95574951 492.86791992 C-514.60516928 403.60279758 -484.77649096 317.56702245 -429.25 233.1875 C-428.79979492 232.53152832 -428.34958984 231.87555664 -427.88574219 231.19970703 C-417.60304705 216.25491263 -406.59447007 201.89494318 -394.765625 188.140625 C-392.34821846 185.30279993 -390.01414045 182.41236811 -387.6875 179.5 C-383.92028124 174.86342307 -379.84449658 170.67999819 -375.57421875 166.5078125 C-373.58901526 164.52594549 -371.74920546 162.51325977 -369.9375 160.375 C-363.05670859 152.35284509 -355.38343113 144.82123146 -347.328125 137.984375 C-345.16922215 136.11765449 -343.07464178 134.18874358 -340.98339844 132.24682617 C-334.93456214 126.63455307 -328.69440064 121.34472538 -322.25 116.1875 C-321.11916043 115.26509625 -319.98898485 114.34187804 -318.859375 113.41796875 C-270.95884495 74.41093806 -215.79216275 44.67889642 -157.25 25.1875 C-156.17331055 24.82817383 -155.09662109 24.46884766 -153.98730469 24.09863281 C-121.67991842 13.44730674 -88.33954534 6.70772603 -54.5625 2.9375 C-53.82094666 2.85432526 -53.07939331 2.77115051 -52.31536865 2.68545532 C-34.87436172 0.75578414 -17.54516195 -0.02338795 0 0 Z M-27.5625 86.5 C-35.33297828 95.66359191 -37.1957761 105.41192146 -36.25 117.1875 C-33.77703073 128.09682728 -27.34862756 136.78596561 -18.25 143.1875 C-9.44464386 148.09589109 0.12610655 149.21942706 9.9375 147.125 C20.32101406 144.10606436 28.83082382 137.25560965 34.1015625 127.75 C38.41573496 118.31468758 39.48970294 108.37137887 36.125 98.375 C32.05100479 88.56037518 24.80621375 80.18129395 15 75.8125 C-1.11290447 70.12124475 -15.99352473 74.29185483 -27.5625 86.5 Z M-330.44140625 228.87109375 C-337.56803541 235.3756642 -342.74323814 244.59128827 -343.48828125 254.2890625 C-343.74987631 266.70794375 -340.59188689 275.59171823 -332.0625 284.75 C-324.65719965 291.88687795 -316.53767843 294.55873216 -306.5 295.5625 C-294.64086159 295.18300757 -285.39397409 289.75193875 -277.5 281.375 C-269.99540166 272.44829741 -268.33600199 262.56741883 -269.25 251.1875 C-271.82251986 239.83901238 -278.4807249 231.41285317 -288.015625 225 C-301.68486189 217.18900749 -318.26467943 219.51606833 -330.44140625 228.87109375 Z M282.71484375 229.71484375 C276.00786286 235.74375624 271.264382 245.04021346 270.51171875 254.03515625 C270.21708486 266.79745559 273.82073536 275.89982512 282.5625 285.09375 C289.9045015 292.08049336 299.29343557 295.58969519 309.44921875 295.3984375 C320.64363159 294.37212461 329.49381618 289.20907334 337.1796875 281.18359375 C344.39100322 272.01697104 345.60665798 262.54123465 344.75 251.1875 C342.23443498 239.84589542 335.4945923 231.39625234 325.984375 225 C311.44587638 216.6922865 295.49783147 220.12146909 282.71484375 229.71484375 Z M-446.25 541.1875 C-452.80183289 549.43494181 -455.92859788 558.09459195 -455.0390625 568.703125 C-453.27708879 579.27496727 -447.98174594 589.37373754 -439.15234375 595.6875 C-430.04899284 601.08207832 -420.51119967 603.77029845 -410.078125 601.49609375 C-399.11668829 598.47791014 -391.04243146 593.02249485 -385.0625 583.24609375 C-380.30405348 574.30651223 -378.76518932 565.11786404 -381.375 555.25 C-385.08435892 544.10458977 -391.11378451 536.68887769 -401.5 531.375 C-417.63716701 523.63216676 -434.46786548 528.3117523 -446.25 541.1875 Z M391.75 539.1875 C385.17856435 547.29418372 381.27391735 556.21098589 381.4765625 566.7890625 C382.83058873 578.66580686 387.98911885 587.28803343 396.875 595 C403.71181502 600.01677553 412.83372173 603.0531335 421.375 602.56640625 C432.91457656 600.72538828 441.66345133 596.48576888 449.0625 587.375 C455.15855027 578.58652753 457.84861636 568.79436988 456.125 558.1875 C453.5218393 547.31547592 447.71396607 538.46594836 438.0859375 532.55078125 C422.22214054 524.38490346 404.60717928 526.65051867 391.75 539.1875 Z " fill="#EF4023" transform="translate(807.25,278.8125)"/>
<path d="M0 0 C331.80357143 0 331.80357143 0 409 66 C410.15822266 66.99 410.15822266 66.99 411.33984375 68 C424.14278443 79.24784139 435.90283104 91.26958974 446 105 C446.83556908 106.10574725 447.67150577 107.2112168 448.5078125 108.31640625 C473.34219015 141.60214652 488.382226 181.65796467 495.3125 222.375 C495.53341309 223.67123291 495.53341309 223.67123291 495.75878906 224.99365234 C498.44771106 242.1127026 499.38199929 259.25393874 499.3125 276.5625 C499.30976578 277.99175812 499.30976578 277.99175812 499.30697632 279.44989014 C499.25571366 295.46287401 498.50524022 311.15710529 496 327 C495.82839355 328.08829102 495.65678711 329.17658203 495.47998047 330.29785156 C488.16562451 374.9422226 471.33285084 417.50894077 443 453 C442.24332031 453.96808594 441.48664062 454.93617188 440.70703125 455.93359375 C432.3734174 466.39235503 423.32723805 476.47955314 413 485 C412.08347656 485.804375 411.16695312 486.60875 410.22265625 487.4375 C396.03031744 499.8563584 380.53561826 509.980244 364 519 C363.01362549 519.54068115 363.01362549 519.54068115 362.00732422 520.09228516 C331.86548599 536.40773526 298.21105676 546.13918197 264.4375 551.1875 C263.43050049 551.3424292 262.42350098 551.4973584 261.38598633 551.65698242 C175.09233821 563.74217199 87.13578778 555 0 555 C0 371.85 0 188.7 0 0 Z M136 116 C136 221.93 136 327.86 136 437 C211.64548344 439.54521801 211.64548344 439.54521801 283 420 C283.67885254 419.67773438 284.35770508 419.35546875 285.05712891 419.0234375 C294.59572148 414.42584989 302.91780423 408.82276469 311 402 C311.51159668 401.57348145 312.02319336 401.14696289 312.55029297 400.70751953 C343.10113371 374.96264676 357.03555886 335.99523094 360.58984375 297.1015625 C364.08158825 250.88707836 355.98092744 202.45620095 325.4375 166.1875 C323.6447117 164.10606037 321.82752345 162.05147111 320 160 C319.40574219 159.33226562 318.81148437 158.66453125 318.19921875 157.9765625 C291.28837661 129.52986585 251.59464815 119.41769529 214 116 C188.26 116 162.52 116 136 116 Z " fill="#EF4023" transform="translate(2600,557)"/>
<path d="M0 0 C44.55 0 89.1 0 135 0 C135.01981934 10.13428711 135.03963867 20.26857422 135.06005859 30.70996094 C135.12496292 63.19209542 135.19950185 95.67420147 135.28005161 128.15630077 C135.29256942 133.20771596 135.30500236 138.25913135 135.31738281 143.31054688 C135.31984881 144.31612846 135.3223148 145.32171004 135.32485552 146.3577638 C135.36450292 162.60755757 135.39728562 178.85735824 135.42749982 195.10717198 C135.45869142 211.79983232 135.49733335 228.49246362 135.54279006 245.18509126 C135.57057311 255.47270199 135.5926499 265.76029166 135.60726251 276.04792967 C135.61786214 283.11709772 135.63574443 290.18622481 135.65916704 297.25536188 C135.67244059 301.32458641 135.68268262 305.39375393 135.68421364 309.46300125 C135.70271577 345.76185549 136.72756501 381.39191754 162 410 C182.8371529 429.05111122 210.18230252 435.02479315 237.75 433.8125 C259.77075955 432.53438329 282.12618155 426.98014218 298.4765625 411.28515625 C300 410 300 410 302 410 C302.27457031 409.401875 302.54914062 408.80375 302.83203125 408.1875 C303.95054022 406.0926337 305.0625844 404.70950024 306.6875 403 C322.92648351 384.31134014 327.14219951 358.69575483 327.15821838 334.78857422 C327.16278944 333.34211307 327.16779026 331.89565323 327.17318195 330.44919491 C327.1867105 326.4881233 327.19416604 322.52706023 327.20060861 318.56597161 C327.20863587 314.28930685 327.2223256 310.01265972 327.23532104 305.73600769 C327.25705087 298.33093826 327.27520809 290.92586701 327.29092598 283.52078247 C327.31365648 272.81432603 327.34179487 262.10788914 327.37124526 251.40144932 C327.41888222 234.03017408 327.46215694 216.65889083 327.50268555 199.28759766 C327.54206031 182.41486996 327.58349128 165.54214938 327.62768555 148.66943359 C327.63177196 147.10889409 327.63177196 147.10889409 327.63594092 145.51682854 C327.64962072 140.29755266 327.66334093 135.07827688 327.67708123 129.85900116 C327.79098479 86.5726814 327.8970035 43.28634735 328 0 C372.88 0 417.76 0 464 0 C464.06625418 44.67196733 464.12160119 89.34388797 464.15319599 134.01589045 C464.15694768 139.30120244 464.16083069 144.58651433 464.16479492 149.87182617 C464.16558185 150.92394604 464.16636878 151.97606591 464.16717956 153.0600682 C464.18019973 170.05015995 464.2038347 187.04022096 464.23145839 204.03029453 C464.25960725 221.49023493 464.27619621 238.95015934 464.28226548 256.4101215 C464.28636235 267.16607704 464.29925676 277.92194564 464.3237494 288.67787439 C464.33972392 296.07411627 464.34437415 303.47031382 464.34050413 310.86657166 C464.33860061 315.12076299 464.34131907 319.37480344 464.35761642 323.62896729 C464.59850854 389.89980885 447.77014217 449.70768776 401.0625 498.25 C395.66365379 503.51801795 389.80177987 508.13414117 383.77929688 512.66064453 C382.63488727 513.52209227 381.49513499 514.38978106 380.36132812 515.26513672 C328.70824424 555.11134984 256.30726143 566.14052679 192.8125 558.8125 C144.0416904 552.42904951 99.16717498 534.84945736 63 501 C61.59427734 499.69289063 61.59427734 499.69289063 60.16015625 498.359375 C48.1202825 486.89976016 38.15310976 473.46361672 30 459 C29.61779297 458.33371582 29.23558594 457.66743164 28.84179688 456.98095703 C1.12327083 408.29782473 -1.27715052 354.58949298 -1.03152263 299.99856424 C-1.01456345 295.9553692 -1.00401686 291.9121561 -0.99261475 287.86894226 C-0.97210966 280.89633561 -0.94771723 273.92375176 -0.92053413 266.95116806 C-0.88123984 256.87050833 -0.8480419 246.78983543 -0.81623887 236.70914961 C-0.76445464 220.34612301 -0.70787323 203.98311676 -0.64819336 187.62011719 C-0.59029789 171.7434976 -0.53471248 155.86687264 -0.48217773 139.99023438 C-0.47892802 139.00836965 -0.4756783 138.02650492 -0.4723301 137.01488672 C-0.45603809 132.08819575 -0.4397909 127.16150464 -0.42356598 122.23481345 C-0.28932407 81.48984944 -0.1463639 40.74492263 0 0 Z " fill="#EF4023" transform="translate(2029,557)"/>
<path d="M0 0 C33.66964429 30.37044127 46.47694204 71.30153819 50.47998047 115.33496094 C1.96998047 115.33496094 -46.54001953 115.33496094 -96.52001953 115.33496094 C-97.18001953 112.36496094 -97.84001953 109.39496094 -98.52001953 106.33496094 C-102.29953618 90.19588746 -109.05952841 77.05208483 -123.43554688 68.06860352 C-140.59655901 57.93703325 -161.79818302 55.53953869 -181.09033203 60.21777344 C-193.80095516 64.35813587 -203.65207596 70.67087625 -210.52001953 82.33496094 C-216.00778892 94.51352423 -218.11288792 109.17141122 -213.55908203 122.00292969 C-203.38803702 144.83042545 -181.14559299 155.99920213 -158.89501953 164.62011719 C-157.89818146 165.00792862 -156.90134338 165.39574005 -155.8742981 165.79530334 C-146.12217583 169.55106742 -136.26309623 172.95983843 -126.35559082 176.27993774 C-123.29743957 177.30517434 -120.24196043 178.33806493 -117.18701172 179.37280273 C-109.78921474 181.87732424 -102.388507 184.37314372 -94.98388672 186.85742188 C-56.87749667 199.64925553 -17.76825769 213.98723877 12.47998047 241.33496094 C13.35912109 242.08261719 14.23826172 242.83027344 15.14404297 243.60058594 C41.44868081 266.24049096 54.28070736 298.74042592 57.16748047 332.68261719 C59.52298787 364.97046722 52.97043305 396.90350995 37.47998047 425.33496094 C36.91408203 426.39328125 36.34818359 427.45160156 35.76513672 428.54199219 C13.20182694 469.04976951 -28.01034768 495.039942 -71.67578125 507.55322266 C-139.43796073 526.17764315 -218.99212534 519.2075078 -280.48535156 484.51513672 C-292.98115327 477.2671519 -303.98103895 468.16344845 -314.52001953 458.33496094 C-315.64730469 457.28888672 -315.64730469 457.28888672 -316.79736328 456.22167969 C-341.5853717 432.39208284 -355.13600001 399.79061767 -360.52001953 366.33496094 C-360.71853516 365.11421875 -360.91705078 363.89347656 -361.12158203 362.63574219 C-361.68445237 356.56005348 -361.52001953 350.43666695 -361.52001953 344.33496094 C-314.00001953 344.33496094 -266.48001953 344.33496094 -217.52001953 344.33496094 C-215.87001953 351.26496094 -214.22001953 358.19496094 -212.52001953 365.33496094 C-208.5132322 374.44717083 -204.76838305 382.4749026 -197.52001953 389.33496094 C-196.96314453 389.92277344 -196.40626953 390.51058594 -195.83251953 391.11621094 C-182.63713778 404.08408611 -163.56003914 406.86426121 -145.86352539 406.75488281 C-127.93479621 406.27262025 -110.82354358 401.48892923 -97.64111328 388.71777344 C-94.23786079 384.89459844 -91.71014828 380.9537473 -89.52001953 376.33496094 C-89.18099609 375.6246875 -88.84197266 374.91441406 -88.49267578 374.18261719 C-84.3343654 363.27902915 -84.81580298 347.72698453 -89.13720703 336.99902344 C-106.82565733 302.92127457 -151.77325891 293.05296823 -185.52001953 282.33496094 C-190.00805124 280.92353682 -194.50189301 279.53090158 -198.99560547 278.13769531 C-254.32558624 260.97868848 -316.01200395 239.22924802 -344.94189453 184.88574219 C-363.99661186 147.43214064 -365.57250535 101.24827522 -353.52001953 61.33496094 C-346.35529394 39.84078418 -335.11420907 21.80696909 -319.52001953 5.33496094 C-318.70017578 4.45066406 -317.88033203 3.56636719 -317.03564453 2.65527344 C-253.84949259 -63.33499768 -131.60006757 -65.17803197 0 0 Z " fill="#EF4023" transform="translate(1889.52001953125,600.6650390625)"/>
<path d="M0 0 C112.53 0 225.06 0 341 0 C341 35.97 341 71.94 341 109 C273.35 109 205.7 109 136 109 C136 145.63 136 182.26 136 220 C195.73 220 255.46 220 317 220 C317 254.65 317 289.3 317 325 C257.27 325 197.54 325 136 325 C136 364.93 136 404.86 136 446 C203.65 446 271.3 446 341 446 C341 481.97 341 517.94 341 555 C228.47 555 115.94 555 0 555 C0 371.85 0 188.7 0 0 Z " fill="#0375BC" transform="translate(4386,557)"/>
<path d="M0 0 C0.8132373 0.19335938 1.62647461 0.38671875 2.46435547 0.5859375 C42.7810152 10.42037963 78.24158417 33.55877678 104 66 C104.79535156 66.97839844 105.59070313 67.95679688 106.41015625 68.96484375 C128.6331105 96.89321573 142.3938338 130.09587116 149 165 C149.2477417 166.29236572 149.2477417 166.29236572 149.50048828 167.61083984 C159.98195093 225.06919922 146.34593114 286.73455455 113.48046875 334.72607422 C108.43873105 341.95203309 103.05488006 348.58895053 97 355 C95.93347854 356.26746029 94.87087909 357.53823264 93.8125 358.8125 C63.80304058 392.93284427 19.51142721 413.12885342 -25.40795898 416.72875977 C-74.4848526 419.71353581 -120.28024277 401.96124324 -156.80078125 369.67578125 C-175.05982439 353.1941877 -189.68779612 333.82921882 -201 312 C-201.36689941 311.30277832 -201.73379883 310.60555664 -202.11181641 309.88720703 C-213.18744549 288.60490807 -220.03729492 265.60489401 -224 242 C-224.12987305 241.26185059 -224.25974609 240.52370117 -224.39355469 239.76318359 C-233.57607126 185.40114223 -219.59453315 123.9619365 -188 79 C-182.79508394 71.70301088 -177.15493623 64.85181571 -171.07421875 58.26171875 C-169.19878414 56.21675333 -167.40967467 54.12380525 -165.625 52 C-142.2333265 25.42578589 -108.01859562 8.08843169 -74 0 C-73.27828613 -0.17789063 -72.55657227 -0.35578125 -71.81298828 -0.5390625 C-49.66954373 -5.75293592 -22.05491067 -5.43617356 0 0 Z " fill="#0375BC" transform="translate(844,621)"/>
<path d="M0 0 C119.46 0 238.92 0 362 0 C362 35.97 362 71.94 362 109 C287.42 109 212.84 109 136 109 C136 147.28 136 185.56 136 225 C191.77 225 247.54 225 305 225 C305 259.98 305 294.96 305 331 C249.23 331 193.46 331 136 331 C136 404.92 136 478.84 136 555 C91.12 555 46.24 555 0 555 C0 371.85 0 188.7 0 0 Z " fill="#0375BC" transform="translate(3942,557)"/>
<path d="M0 0 C44.88 0 89.76 0 136 0 C136 148.5 136 297 136 450 C194.41 450 252.82 450 313 450 C313 484.65 313 519.3 313 555 C209.71 555 106.42 555 0 555 C0 371.85 0 188.7 0 0 Z " fill="#0375BC" transform="translate(3325,557)"/>
<path d="M0 0 C0.54881836 0.4444043 1.09763672 0.88880859 1.66308594 1.34667969 C10.35427056 8.4639879 18.41341447 16.20948943 26.375 24.125 C27.29015381 25.03088867 28.20530762 25.93677734 29.14819336 26.87011719 C35.18834386 32.93824912 40.71066391 39.26964644 46 46 C46.54414551 46.69013184 47.08829102 47.38026367 47.64892578 48.09130859 C65.55642224 71.08460551 83.12921572 98.03447667 92 126 C91.57286335 129.39884964 91.14741791 129.87962324 88.359375 132.15625 C87.16562102 132.9517453 85.96154753 133.73187637 84.75 134.5 C84.08742188 134.92941895 83.42484375 135.35883789 82.7421875 135.80126953 C66.42894696 146.22486256 49.26094623 155.26602209 32 164 C31.16629883 164.42490723 30.33259766 164.84981445 29.47363281 165.28759766 C4.09043916 178.13192128 -22.79740631 187.81120893 -50 196 C-50.71897461 196.22381348 -51.43794922 196.44762695 -52.17871094 196.67822266 C-55.33559202 197.63665109 -57.63866618 198 -61 198 C-61.40089844 196.89785156 -61.80179688 195.79570313 -62.21484375 194.66015625 C-73.30134146 164.79733492 -90.7359802 139.28143275 -118 122 C-119.10730469 121.29359375 -120.21460938 120.5871875 -121.35546875 119.859375 C-151.98692579 101.38885315 -188.87139179 96.7923006 -223.45898438 105.12719727 C-256.99236881 113.93164233 -287.37989122 135.96361675 -305 166 C-310.52789517 176.21529166 -315.51691095 186.90090281 -319 198 C-325.50228733 197.32956642 -331.52121751 195.49865555 -337.75 193.5625 C-338.88816162 193.20905518 -340.02632324 192.85561035 -341.19897461 192.49145508 C-386.93604925 178.05856063 -433.27954395 157.74095707 -472 129 C-471.41205405 123.45014659 -469.43200933 118.94689384 -467.125 113.9375 C-466.7235376 113.0619043 -466.3220752 112.18630859 -465.90844727 111.28417969 C-454.90651265 87.56950857 -441.67451171 65.21717953 -425 45 C-424.5575293 44.45746582 -424.11505859 43.91493164 -423.65917969 43.35595703 C-416.6768819 34.84583048 -409.13071446 26.93218588 -401.375 19.125 C-400.51672607 18.25746094 -399.65845215 17.38992188 -398.77416992 16.49609375 C-392.82545123 10.57627158 -386.58001093 5.20424706 -380 0 C-379.2889209 -0.57041016 -378.5778418 -1.14082031 -377.84521484 -1.72851562 C-332.32020194 -38.0582657 -276.07241046 -60.91940254 -218 -66 C-216.76378906 -66.11085938 -215.52757812 -66.22171875 -214.25390625 -66.3359375 C-137.10341213 -72.17947544 -60.13569151 -48.76353201 0 0 Z " fill="#0375BC" transform="translate(998,1193)"/>
<path d="M0 0 C44.88 0 89.76 0 136 0 C136 183.15 136 366.3 136 555 C91.12 555 46.24 555 0 555 C0 371.85 0 188.7 0 0 Z " fill="#0375BC" transform="translate(3713,557)"/>
</svg>
